<mxfile host="app.diagrams.net" agent="Mozilla/5.0 (Macintosh; Intel Mac OS X 10_15_7) AppleWebKit/537.36 (KHTML, like Gecko) Chrome/130.0.0.0 Safari/537.36" version="24.8.4">
  <diagram name="ページ1" id="ylpGLvcmU-I3vOtjr_O-">
    <mxGraphModel dx="1242" dy="711" grid="1" gridSize="10" guides="1" tooltips="1" connect="1" arrows="1" fold="1" page="1" pageScale="1" pageWidth="827" pageHeight="1169" math="0" shadow="0">
      <root>
        <mxCell id="0" />
        <mxCell id="1" parent="0" />
        <mxCell id="CMsbmwhmflWB24PiK8Ix-19" style="edgeStyle=orthogonalEdgeStyle;rounded=0;sketch=1;hachureGap=4;jiggle=2;curveFitting=1;orthogonalLoop=1;jettySize=auto;html=1;fontFamily=Architects Daughter;fontSource=https%3A%2F%2Ffonts.googleapis.com%2Fcss%3Ffamily%3DArchitects%2BDaughter;entryX=0.013;entryY=0.375;entryDx=0;entryDy=0;entryPerimeter=0;exitX=0.983;exitY=0.38;exitDx=0;exitDy=0;exitPerimeter=0;" edge="1" parent="1" source="CMsbmwhmflWB24PiK8Ix-1" target="CMsbmwhmflWB24PiK8Ix-2">
          <mxGeometry relative="1" as="geometry" />
        </mxCell>
        <mxCell id="CMsbmwhmflWB24PiK8Ix-1" value="" style="rounded=0;whiteSpace=wrap;html=1;labelBackgroundColor=none;sketch=1;curveFitting=1;jiggle=2;fillColor=#d5e8d4;strokeColor=#82b366;" vertex="1" parent="1">
          <mxGeometry x="80" y="280" width="200" height="220" as="geometry" />
        </mxCell>
        <mxCell id="CMsbmwhmflWB24PiK8Ix-2" value="" style="rounded=0;whiteSpace=wrap;html=1;labelBackgroundColor=none;sketch=1;curveFitting=1;jiggle=2;fillColor=#f8cecc;strokeColor=#b85450;" vertex="1" parent="1">
          <mxGeometry x="570" y="280" width="200" height="220" as="geometry" />
        </mxCell>
        <mxCell id="CMsbmwhmflWB24PiK8Ix-15" value="" style="rounded=0;whiteSpace=wrap;html=1;labelBackgroundColor=none;sketch=1;curveFitting=1;jiggle=2;fillColor=#b1ddf0;strokeColor=#10739e;" vertex="1" parent="1">
          <mxGeometry x="570" y="400" width="200" height="100" as="geometry" />
        </mxCell>
        <mxCell id="CMsbmwhmflWB24PiK8Ix-9" value="&lt;font style=&quot;font-size: 23px;&quot;&gt;Heroku&lt;/font&gt;" style="text;strokeColor=none;align=center;fillColor=none;html=1;verticalAlign=middle;whiteSpace=wrap;rounded=0;fontFamily=Architects Daughter;fontSource=https%3A%2F%2Ffonts.googleapis.com%2Fcss%3Ffamily%3DArchitects%2BDaughter;" vertex="1" parent="1">
          <mxGeometry x="632" y="430" width="76" height="40" as="geometry" />
        </mxCell>
        <mxCell id="CMsbmwhmflWB24PiK8Ix-10" value="&lt;font style=&quot;font-size: 26px;&quot;&gt;React&lt;/font&gt;" style="text;strokeColor=none;align=center;fillColor=none;html=1;verticalAlign=middle;whiteSpace=wrap;rounded=0;fontFamily=Architects Daughter;fontSource=https%3A%2F%2Ffonts.googleapis.com%2Fcss%3Ffamily%3DArchitects%2BDaughter;" vertex="1" parent="1">
          <mxGeometry x="138" y="320" width="76" height="40" as="geometry" />
        </mxCell>
        <mxCell id="CMsbmwhmflWB24PiK8Ix-11" value="&lt;font style=&quot;font-size: 23px;&quot;&gt;Ruby on&lt;/font&gt;&lt;div&gt;&lt;font style=&quot;font-size: 23px;&quot;&gt;Rails&lt;/font&gt;&lt;/div&gt;" style="text;strokeColor=none;align=center;fillColor=none;html=1;verticalAlign=middle;whiteSpace=wrap;rounded=0;fontFamily=Architects Daughter;fontSource=https%3A%2F%2Ffonts.googleapis.com%2Fcss%3Ffamily%3DArchitects%2BDaughter;" vertex="1" parent="1">
          <mxGeometry x="630" y="320" width="76" height="40" as="geometry" />
        </mxCell>
        <mxCell id="CMsbmwhmflWB24PiK8Ix-13" value="" style="rounded=0;whiteSpace=wrap;html=1;labelBackgroundColor=none;sketch=1;curveFitting=1;jiggle=2;fillColor=#fad9d5;strokeColor=#ae4132;" vertex="1" parent="1">
          <mxGeometry x="80" y="400" width="200" height="100" as="geometry" />
        </mxCell>
        <mxCell id="CMsbmwhmflWB24PiK8Ix-14" value="&lt;font style=&quot;font-size: 23px;&quot;&gt;Sakura&lt;/font&gt;&lt;div&gt;&lt;font style=&quot;font-size: 23px;&quot;&gt;Rental&lt;br&gt;Server&lt;/font&gt;&lt;/div&gt;" style="text;strokeColor=none;align=center;fillColor=none;html=1;verticalAlign=middle;whiteSpace=wrap;rounded=0;fontFamily=Architects Daughter;fontSource=https%3A%2F%2Ffonts.googleapis.com%2Fcss%3Ffamily%3DArchitects%2BDaughter;" vertex="1" parent="1">
          <mxGeometry x="146" y="425" width="68" height="50" as="geometry" />
        </mxCell>
        <mxCell id="CMsbmwhmflWB24PiK8Ix-17" style="edgeStyle=orthogonalEdgeStyle;rounded=0;sketch=1;hachureGap=4;jiggle=2;curveFitting=1;orthogonalLoop=1;jettySize=auto;html=1;exitX=0.5;exitY=1;exitDx=0;exitDy=0;fontFamily=Architects Daughter;fontSource=https%3A%2F%2Ffonts.googleapis.com%2Fcss%3Ffamily%3DArchitects%2BDaughter;" edge="1" parent="1" source="CMsbmwhmflWB24PiK8Ix-13" target="CMsbmwhmflWB24PiK8Ix-13">
          <mxGeometry relative="1" as="geometry" />
        </mxCell>
        <mxCell id="CMsbmwhmflWB24PiK8Ix-18" style="edgeStyle=orthogonalEdgeStyle;rounded=0;sketch=1;hachureGap=4;jiggle=2;curveFitting=1;orthogonalLoop=1;jettySize=auto;html=1;entryX=0.978;entryY=0.184;entryDx=0;entryDy=0;entryPerimeter=0;fontFamily=Architects Daughter;fontSource=https%3A%2F%2Ffonts.googleapis.com%2Fcss%3Ffamily%3DArchitects%2BDaughter;exitX=0.018;exitY=0.189;exitDx=0;exitDy=0;exitPerimeter=0;" edge="1" parent="1" source="CMsbmwhmflWB24PiK8Ix-2" target="CMsbmwhmflWB24PiK8Ix-1">
          <mxGeometry relative="1" as="geometry" />
        </mxCell>
      </root>
    </mxGraphModel>
  </diagram>
</mxfile>
